<?xml version="1.0" encoding="utf-8"?>
<svg viewBox="0 0 128 128" fill="none" xmlns="http://www.w3.org/2000/svg">
  <rect width="128" height="128" rx="4" fill="#D73B3B"/>
  <path d="M 222.305244 2.228624 Q 118.117072 2.228624 67.973032 -56.829912 Q 50.14404 -78.00184 39.00092 -113.102668 Q 27.857799999999997 -148.203496 27.857799999999997 -198.347536 Q 27.857799999999997 -248.49157599999998 44.293901999999996 -288.32823 Q 60.730004 -328.164884 89.14496 -349.893968 Q 144.303404 -390.566356 222.305244 -390.566356 Q 244.59148399999998 -390.566356 265.763412 -386.944842 Q 286.93534 -383.323328 297.521304 -379.423236 L 307.550112 -375.523144 L 305.878644 -369.95158399999997 Q 267.992036 -384.994796 222.305244 -384.994796 Q 163.24670799999998 -384.994796 123.688632 -346.55103199999996 Q 93.60220799999999 -318.136076 81.344776 -262.97763199999997 Q 74.101748 -231.776896 74.101748 -186.64726 Q 74.101748 -141.51762399999998 86.916336 -103.35243799999999 Q 99.730924 -65.187252 116.16702599999999 -46.801103999999995 Q 132.603128 -28.414956 156.00368 -17.550414 Q 179.404232 -6.685872 193.333132 -5.014404 Q 207.262032 -3.342936 227.04107 -3.342936 Q 246.820108 -3.342936 271.892128 -7.243028 Q 296.96414799999997 -11.14312 309.778736 -14.486056 L 322.593324 -18.386148 L 324.264792 -12.814588 Q 281.920936 2.228624 222.305244 2.228624 Z" transform="matrix(0.20102199912071228, 0, 0, 0.2010210007429123, 29.446941375732422, 101.92478942871094)" style="fill: rgb(255, 255, 255); line-height: 573.074px; white-space: pre;"/>
</svg>