<?xml version="1.0" encoding="utf-8"?>
<svg width="152" height="64" viewBox="0 0 152 64" fill="none" xmlns="http://www.w3.org/2000/svg">
  <rect width="152" height="64" rx="4" fill="#D73B3B"/>
  <mask id="mask0_8_388" style="mask-type:alpha" maskUnits="userSpaceOnUse" x="0" y="0" width="152" height="64">
    <rect width="152" height="64" rx="4" fill="#D73B3B"/>
  </mask>
  <g mask="url(#mask0_8_388)">
    <rect x="40" y="69.2401" width="182.522" height="72.8274" transform="rotate(-15 40 69.2401)" fill="#C53333"/>
    <rect x="63.1822" y="63.0285" width="12" height="11.9844" transform="rotate(-15 63.1822 63.0285)" fill="white"/>
    <rect x="86.3644" y="56.8168" width="12" height="11.9844" transform="rotate(-15 86.3644 56.8168)" fill="white"/>
    <rect x="109.547" y="50.6052" width="12" height="11.9844" transform="rotate(-15 109.547 50.6052)" fill="white"/>
    <rect x="132.729" y="44.3935" width="12" height="11.9844" transform="rotate(-15 132.729 44.3935)" fill="white"/>
    <rect x="147.422" y="52.8637" width="12" height="11.9844" transform="rotate(-15 147.422 52.8637)" fill="white"/>
    <rect x="124.24" y="59.0753" width="12" height="11.9844" transform="rotate(-15 124.24 59.0753)" fill="white"/>
    <rect x="101.057" y="65.287" width="12" height="11.9844" transform="rotate(-15 101.057 65.287)" fill="white"/>
  </g>
  <path d="M 29.528997268676758 38.495998962402346 Q 28.714997268676758 38.803998962402346 27.812997268676757 38.935998962402344 Q 26.91099726867676 39.06799896240234 25.70099726867676 39.06799896240234 Q 24.11699726867676 39.06799896240234 23.104997268676758 38.72699896240234 Q 22.092997268676758 38.38599896240235 21.509997268676756 37.57199896240235 Q 20.926997268676757 36.75799896240235 20.684997268676756 35.36099896240234 Q 20.44299726867676 33.96399896240234 20.44299726867676 31.873998962402343 Q 20.44299726867676 29.739998962402346 20.69599726867676 28.342998962402344 Q 20.948997268676756 26.945998962402342 21.553997268676756 26.142998962402345 Q 22.158997268676757 25.339998962402344 23.23699726867676 24.998998962402347 Q 24.314997268676755 24.657998962402345 25.98699726867676 24.657998962402345 Q 26.470997268676758 24.657998962402345 27.10899726867676 24.712998962402345 Q 27.746997268676758 24.767998962402345 28.34099726867676 24.877998962402344 Q 28.934997268676756 24.987998962402344 29.308997268676755 25.141998962402344 L 28.95699726867676 27.341998962402343 Q 28.45099726867676 27.209998962402345 27.823997268676756 27.121998962402344 Q 27.196997268676757 27.033998962402343 26.624997268676758 26.978998962402343 Q 26.05299726867676 26.923998962402344 25.678997268676756 26.923998962402344 Q 24.42499726867676 26.923998962402344 23.885997268676757 27.231998962402344 Q 23.34699726867676 27.539998962402343 23.34699726867676 28.573998962402342 L 23.34699726867676 36.51599896240234 Q 23.896997268676756 36.64799896240234 24.512997268676756 36.724998962402346 Q 25.128997268676756 36.801998962402344 25.766997268676757 36.801998962402344 Q 26.66899726867676 36.801998962402344 27.58199726867676 36.64799896240234 Q 28.494997268676755 36.493998962402344 29.286997268676757 36.25199896240235 Z M 29.637245880126954 38.737998962402344 L 33.57524588012696 24.987998962402344 L 37.71124588012695 24.987998962402344 L 41.649245880126955 38.737998962402344 L 38.94324588012695 38.737998962402344 L 35.731245880126956 27.517998962402345 L 35.533245880126955 27.517998962402345 L 32.34324588012695 38.737998962402344 Z M 31.771245880126955 35.855998962402346 L 31.771245880126955 33.78799896240234 L 39.53724588012695 33.78799896240234 L 39.53724588012695 35.855998962402346 Z M 43.12746981811524 38.737998962402344 L 43.12746981811524 24.987998962402344 L 45.76746981811523 24.987998962402344 L 50.56346981811524 32.709998962402345 Q 50.87146981811523 33.237998962402344 50.99246981811523 33.50199896240235 Q 51.113469818115234 33.76599896240234 51.113469818115234 34.117998962402346 L 51.24546981811523 34.117998962402346 L 51.24546981811523 24.987998962402344 L 53.951469818115235 24.987998962402344 L 53.951469818115235 38.737998962402344 L 51.311469818115235 38.737998962402344 L 46.537469818115234 31.015998962402342 Q 46.207469818115236 30.487998962402344 46.097469818115236 30.223998962402344 Q 45.98746981811524 29.959998962402345 45.96546981811523 29.607998962402345 L 45.83346981811523 29.607998962402345 L 45.83346981811523 38.737998962402344 Z M 56.923708374023434 24.987998962402344 L 62.115708374023434 24.987998962402344 Q 63.85370837402344 24.987998962402344 64.95370837402344 25.273998962402345 Q 66.05370837402344 25.559998962402346 66.66970837402343 26.318998962402347 Q 67.28570837402344 27.077998962402344 67.52770837402343 28.408998962402343 Q 67.76970837402344 29.739998962402346 67.76970837402344 31.873998962402343 Q 67.76970837402344 33.98599896240234 67.52770837402343 35.32799896240235 Q 67.28570837402344 36.669998962402346 66.66970837402343 37.41799896240234 Q 66.05370837402344 38.16599896240234 64.95370837402344 38.45199896240234 Q 63.85370837402344 38.737998962402344 62.115708374023434 38.737998962402344 L 56.923708374023434 38.737998962402344 Z M 59.62970837402344 27.187998962402347 L 59.62970837402344 36.53799896240234 L 63.14970837402343 36.53799896240234 Q 64.11770837402344 36.53799896240234 64.49170837402343 36.19699896240235 Q 64.86570837402344 35.855998962402346 64.86570837402344 34.99799896240234 L 64.86570837402344 28.727998962402346 Q 64.86570837402344 27.869998962402345 64.49170837402343 27.528998962402344 Q 64.11770837402344 27.187998962402347 63.14970837402343 27.187998962402347 Z M 70.09941333007812 24.987998962402344 L 72.80541333007812 24.987998962402344 L 72.80541333007812 38.737998962402344 L 70.09941333007812 38.737998962402344 Z M 75.77973345947265 38.737998962402344 L 75.77973345947265 24.987998962402344 L 78.41973345947265 24.987998962402344 L 83.21573345947266 32.709998962402345 Q 83.52373345947265 33.237998962402344 83.64473345947266 33.50199896240235 Q 83.76573345947266 33.76599896240234 83.76573345947266 34.117998962402346 L 83.89773345947266 34.117998962402346 L 83.89773345947266 24.987998962402344 L 86.60373345947265 24.987998962402344 L 86.60373345947265 38.737998962402344 L 83.96373345947265 38.737998962402344 L 79.18973345947265 31.015998962402342 Q 78.85973345947265 30.487998962402344 78.74973345947265 30.223998962402344 Q 78.63973345947265 29.959998962402345 78.61773345947266 29.607998962402345 L 78.48573345947266 29.607998962402345 L 78.48573345947266 38.737998962402344 Z M 92.29501446533203 38.737998962402344 L 89.58901446533203 38.737998962402344 L 89.58901446533203 24.987998962402344 L 92.29501446533203 24.987998962402344 Z M 97.46501446533203 24.987998962402344 L 100.14901446533203 24.987998962402344 L 100.14901446533203 38.737998962402344 L 97.46501446533203 38.737998962402344 Z M 97.81701446533204 32.95199896240234 L 91.94301446533203 32.95199896240234 L 91.94301446533203 30.883998962402345 L 97.81701446533204 30.883998962402345 Z M 102.48457556152344 31.873998962402343 Q 102.48457556152344 29.673998962402344 102.73757556152344 28.265998962402342 Q 102.99057556152344 26.857998962402345 103.61757556152344 26.065998962402347 Q 104.24457556152343 25.273998962402345 105.37757556152344 24.965998962402345 Q 106.51057556152344 24.657998962402345 108.29257556152344 24.657998962402345 Q 110.03057556152343 24.657998962402345 111.17457556152344 24.965998962402345 Q 112.31857556152343 25.273998962402345 112.94557556152344 26.076998962402342 Q 113.57257556152344 26.879998962402347 113.83657556152343 28.276998962402345 Q 114.10057556152344 29.673998962402344 114.10057556152344 31.873998962402343 Q 114.10057556152344 34.07399896240234 113.83657556152343 35.47099896240234 Q 113.57257556152344 36.867998962402346 112.94557556152344 37.65999896240234 Q 112.31857556152343 38.45199896240234 111.17457556152344 38.75999896240234 Q 110.03057556152343 39.06799896240234 108.29257556152344 39.06799896240234 Q 106.51057556152344 39.06799896240234 105.37757556152344 38.75999896240234 Q 104.24457556152343 38.45199896240234 103.61757556152344 37.65999896240234 Q 102.99057556152344 36.867998962402346 102.73757556152344 35.47099896240234 Q 102.48457556152344 34.07399896240234 102.48457556152344 31.873998962402343 Z M 105.38857556152344 36.75799896240235 L 109.32657556152344 36.75799896240235 Q 110.38257556152344 36.75799896240235 110.78957556152343 36.42799896240234 Q 111.19657556152343 36.09799896240234 111.19657556152343 35.261998962402345 L 111.19657556152343 26.967998962402344 L 107.21457556152343 26.967998962402344 Q 106.18057556152344 26.967998962402344 105.78457556152344 27.297998962402346 Q 105.38857556152344 27.627998962402344 105.38857556152344 28.463998962402343 Z M 116.54614428710937 38.737998962402344 L 116.54614428710937 24.987998962402344 L 119.18614428710937 24.987998962402344 L 123.98214428710938 32.709998962402345 Q 124.29014428710937 33.237998962402344 124.41114428710938 33.50199896240235 Q 124.53214428710938 33.76599896240234 124.53214428710938 34.117998962402346 L 124.66414428710938 34.117998962402346 L 124.66414428710938 24.987998962402344 L 127.37014428710937 24.987998962402344 L 127.37014428710937 38.737998962402344 L 124.73014428710937 38.737998962402344 L 119.95614428710937 31.015998962402342 Q 119.62614428710937 30.487998962402344 119.51614428710937 30.223998962402344 Q 119.40614428710937 29.959998962402345 119.38414428710938 29.607998962402345 L 119.25214428710937 29.607998962402345 L 119.25214428710937 38.737998962402344 Z M 130.34237902832032 24.987998962402344 L 133.0483790283203 24.987998962402344 L 133.0483790283203 38.737998962402344 L 130.34237902832032 38.737998962402344 Z" transform="matrix(1, 0, 0, 1, 0, 0)" style="fill: rgb(255, 255, 255); white-space: pre;"/>
  <text style="white-space: pre; fill: rgb(51, 51, 51); font-family: Arial, sans-serif; font-size: 28px;" transform="matrix(0.102176, 0, 0, 0.102176, 28.533379, 14.756516)"> </text>
  <text style="white-space: pre; fill: rgb(51, 51, 51); font-family: Arial, sans-serif; font-size: 28px;" transform="matrix(0.102176, 0, 0, 0.102176, 41.412912, 9.468232)"> </text>
  <text style="white-space: pre; fill: rgb(51, 51, 51); font-family: Arial, sans-serif; font-size: 28px;" transform="matrix(0.102176, 0, 0, 0.102176, 128.269291, 26.186026)"> </text>
</svg>