<?xml version="1.0" encoding="utf-8"?>
<svg width="152" height="64" viewBox="0 0 152 64" fill="none" xmlns="http://www.w3.org/2000/svg">
  <rect width="152" height="64" rx="4" fill="#D73B3B"/>
  <mask id="mask0_8_388" style="mask-type:alpha" maskUnits="userSpaceOnUse" x="0" y="0" width="152" height="64">
    <rect width="152" height="64" rx="4" fill="#D73B3B"/>
  </mask>
  <g mask="url(#mask0_8_388)">
    <rect x="40" y="69.2401" width="182.522" height="72.8274" transform="rotate(-15 40 69.2401)" fill="#C53333"/>
    <rect x="63.1822" y="63.0285" width="12" height="11.9844" transform="rotate(-15 63.1822 63.0285)" fill="white"/>
    <rect x="86.3644" y="56.8168" width="12" height="11.9844" transform="rotate(-15 86.3644 56.8168)" fill="white"/>
    <rect x="109.547" y="50.6052" width="12" height="11.9844" transform="rotate(-15 109.547 50.6052)" fill="white"/>
    <rect x="132.729" y="44.3935" width="12" height="11.9844" transform="rotate(-15 132.729 44.3935)" fill="white"/>
    <rect x="147.422" y="52.8637" width="12" height="11.9844" transform="rotate(-15 147.422 52.8637)" fill="white"/>
    <rect x="124.24" y="59.0753" width="12" height="11.9844" transform="rotate(-15 124.24 59.0753)" fill="white"/>
    <rect x="101.057" y="65.287" width="12" height="11.9844" transform="rotate(-15 101.057 65.287)" fill="white"/>
  </g>
  <path d="M 17.741000015258788 39.62299926757812 Q 16.13500001525879 39.62299926757812 14.749000015258789 39.08399926757812 Q 13.363000015258788 38.54499926757813 12.31800001525879 37.54399926757812 Q 11.27300001525879 36.542999267578125 10.701000015258789 35.15699926757812 Q 10.12900001525879 33.77099926757813 10.12900001525879 32.09899926757812 Q 10.12900001525879 30.294999267578127 10.78900001525879 28.853999267578125 Q 11.44900001525879 27.412999267578126 12.593000015258788 26.400999267578126 Q 13.73700001525879 25.388999267578125 15.233000015258789 24.860999267578126 Q 16.72900001525879 24.332999267578124 18.401000015258788 24.332999267578124 Q 19.215000015258788 24.332999267578124 20.06200001525879 24.442999267578124 Q 20.90900001525879 24.552999267578127 21.64600001525879 24.739999267578128 Q 22.383000015258787 24.926999267578125 22.86700001525879 25.146999267578124 L 22.86700001525879 28.622999267578123 L 22.36100001525879 28.622999267578123 Q 22.273000015258788 27.324999267578125 21.63500001525879 26.587999267578127 Q 20.997000015258788 25.850999267578125 20.06200001525879 25.531999267578126 Q 19.127000015258787 25.212999267578127 18.115000015258786 25.212999267578127 Q 16.55300001525879 25.212999267578127 15.211000015258788 25.916999267578127 Q 13.869000015258788 26.620999267578128 13.066000015258789 28.061999267578123 Q 12.26300001525879 29.502999267578126 12.26300001525879 31.746999267578126 Q 12.26300001525879 33.880999267578126 13.011000015258789 35.453999267578126 Q 13.759000015258788 37.02699926757813 15.002000015258789 37.884999267578124 Q 16.24500001525879 38.74299926757813 17.76300001525879 38.74299926757813 Q 19.14900001525879 38.74299926757813 20.21600001525879 38.09399926757813 Q 21.283000015258786 37.444999267578126 21.965000015258788 36.454999267578124 Q 22.64700001525879 35.46499926757812 22.86700001525879 34.45299926757812 L 23.37300001525879 34.45299926757812 L 23.241000015258788 37.02699926757813 Q 22.40500001525879 38.060999267578126 21.08500001525879 38.841999267578124 Q 19.76500001525879 39.62299926757812 17.741000015258788 39.62299926757812 Z M 34.51773919677734 37.09299926757812 Q 34.781739196777345 37.862999267578125 35.02373919677734 38.203999267578126 Q 35.265739196777346 38.54499926757813 35.60673919677734 38.643999267578124 Q 35.94773919677734 38.74299926757813 36.519739196777344 38.786999267578125 L 36.519739196777344 39.292999267578125 L 31.26173919677734 39.292999267578125 L 31.26173919677734 38.786999267578125 Q 32.009739196777346 38.74299926757813 32.372739196777346 38.63299926757813 Q 32.735739196777345 38.52299926757812 32.77973919677734 38.170999267578125 Q 32.82373919677734 37.81899926757813 32.55973919677734 37.09299926757812 L 31.305739196777346 33.30899926757812 Q 31.195739196777343 33.41899926757812 30.975739196777344 33.451999267578124 Q 30.75573919677734 33.484999267578125 30.513739196777344 33.484999267578125 L 27.631739196777342 33.484999267578125 Q 27.147739196777344 33.484999267578125 26.905739196777343 33.594999267578125 Q 26.663739196777342 33.704999267578124 26.487739196777344 34.188999267578126 L 25.45373919677734 37.09299926757812 Q 25.167739196777344 37.92899926757813 25.464739196777344 38.335999267578124 Q 25.761739196777345 38.74299926757813 27.169739196777343 38.786999267578125 L 27.169739196777343 39.292999267578125 L 22.615739196777344 39.292999267578125 L 22.615739196777344 38.786999267578125 Q 23.319739196777345 38.74299926757813 23.726739196777345 38.335999267578124 Q 24.133739196777345 37.92899926757813 24.441739196777345 37.09299926757812 L 28.335739196777343 26.400999267578126 Q 28.555739196777346 25.828999267578126 28.753739196777342 25.278999267578126 Q 28.951739196777343 24.728999267578125 29.105739196777343 24.156999267578126 L 30.183739196777342 24.156999267578126 Q 30.337739196777342 24.728999267578125 30.524739196777343 25.278999267578126 Q 30.711739196777344 25.828999267578126 30.931739196777343 26.400999267578126 Z M 30.557739196777344 32.692999267578124 Q 30.843739196777342 32.692999267578124 30.95373919677734 32.615999267578125 Q 31.06373919677734 32.53899926757813 30.95373919677734 32.274999267578124 L 29.149739196777343 26.928999267578128 L 29.105739196777343 26.928999267578128 L 26.993739196777344 32.758999267578126 Q 27.103739196777344 32.71499926757812 27.257739196777344 32.703999267578126 Q 27.411739196777344 32.692999267578124 27.609739196777344 32.692999267578124 Z M 48.94699926757812 39.46899926757813 Q 48.61699926757812 38.96299926757813 48.22099926757812 38.445999267578124 Q 47.82499926757812 37.92899926757813 47.142999267578126 37.18099926757812 L 39.112999267578125 28.094999267578125 L 39.06899926757812 28.094999267578125 L 39.06899926757812 37.09299926757812 Q 39.06899926757812 37.90699926757812 39.475999267578125 38.32499926757812 Q 39.88299926757813 38.74299926757813 41.18099926757812 38.786999267578125 L 41.18099926757812 39.292999267578125 L 36.53899926757813 39.292999267578125 L 36.53899926757813 38.786999267578125 Q 37.44099926757812 38.74299926757813 37.759999267578124 38.32499926757812 Q 38.078999267578126 37.90699926757812 38.078999267578126 37.09299926757812 L 38.078999267578126 26.862999267578125 Q 38.078999267578126 26.00499926757813 37.58399926757812 25.608999267578128 Q 37.088999267578124 25.212999267578127 35.98899926757812 25.168999267578126 L 35.98899926757812 24.662999267578126 L 38.98099926757813 24.662999267578126 Q 39.310999267578126 25.212999267578127 39.695999267578124 25.740999267578125 Q 40.08099926757812 26.268999267578124 40.542999267578125 26.774999267578124 L 48.66099926757812 35.86099926757812 L 48.704999267578124 35.86099926757812 L 48.704999267578124 26.862999267578125 Q 48.704999267578124 26.048999267578125 48.29799926757812 25.630999267578126 Q 47.890999267578124 25.212999267578127 46.59299926757812 25.168999267578126 L 46.59299926757812 24.662999267578126 L 51.234999267578125 24.662999267578126 L 51.234999267578125 25.168999267578126 Q 50.35499926757812 25.212999267578127 50.024999267578124 25.630999267578126 Q 49.694999267578126 26.048999267578125 49.694999267578126 26.862999267578125 L 49.694999267578126 37.09299926757812 Q 49.694999267578126 37.70899926757812 49.70599926757812 38.26999926757812 Q 49.716999267578124 38.83099926757812 49.73899926757812 39.46899926757813 Z M 52.110161163330076 39.292999267578125 L 52.110161163330076 38.786999267578125 Q 52.70416116333008 38.764999267578126 53.034161163330076 38.65499926757813 Q 53.36416116333008 38.54499926757813 53.507161163330075 38.192999267578124 Q 53.650161163330075 37.84099926757813 53.650161163330075 37.09299926757812 L 53.650161163330075 26.862999267578125 Q 53.650161163330075 26.092999267578126 53.485161163330076 25.751999267578128 Q 53.32016116333008 25.410999267578127 52.88016116333008 25.300999267578128 Q 52.440161163330075 25.19099926757813 51.56016116333008 25.168999267578126 L 51.56016116333008 24.662999267578126 L 53.650161163330075 24.662999267578126 Q 55.14616116333008 24.662999267578126 56.30116116333008 24.607999267578126 Q 57.45616116333008 24.552999267578127 58.27016116333008 24.552999267578127 Q 60.64616116333008 24.552999267578127 62.41716116333008 25.333999267578125 Q 64.18816116333008 26.114999267578128 65.17816116333007 27.654999267578127 Q 66.16816116333008 29.194999267578126 66.16816116333008 31.526999267578127 Q 66.16816116333008 33.33099926757812 65.50816116333007 34.771999267578124 Q 64.84816116333008 36.21299926757813 63.71516116333008 37.22499926757813 Q 62.58216116333008 38.23699926757813 61.163161163330074 38.764999267578126 Q 59.74416116333008 39.292999267578125 58.20416116333008 39.292999267578125 Z M 57.544161163330074 38.50099926757812 Q 60.888161163330075 38.50099926757812 62.461161163330075 36.707999267578124 Q 64.03416116333008 34.914999267578125 64.03416116333008 31.856999267578125 Q 64.03416116333008 29.502999267578126 63.25316116333008 28.072999267578126 Q 62.47216116333008 26.642999267578126 61.04216116333008 25.993999267578126 Q 59.61216116333008 25.344999267578125 57.65416116333008 25.344999267578125 Q 56.44416116333008 25.344999267578125 55.982161163330076 25.597999267578125 Q 55.52016116333008 25.850999267578125 55.52016116333008 26.862999267578125 L 55.52016116333008 37.09299926757812 Q 55.52016116333008 38.03899926757813 55.97116116333008 38.26999926757812 Q 56.422161163330074 38.50099926757812 57.544161163330074 38.50099926757812 Z M 67.636328125 39.292999267578125 L 67.636328125 38.786999267578125 Q 68.230328125 38.764999267578126 68.571328125 38.65499926757813 Q 68.912328125 38.54499926757813 69.04432812499999 38.192999267578124 Q 69.176328125 37.84099926757813 69.176328125 37.09299926757812 L 69.176328125 26.862999267578125 Q 69.176328125 26.092999267578126 69.011328125 25.751999267578128 Q 68.846328125 25.410999267578127 68.406328125 25.300999267578128 Q 67.966328125 25.19099926757813 67.086328125 25.168999267578126 L 67.086328125 24.662999267578126 L 72.586328125 24.662999267578126 L 72.586328125 25.168999267578126 Q 71.992328125 25.19099926757813 71.662328125 25.300999267578128 Q 71.332328125 25.410999267578127 71.189328125 25.751999267578128 Q 71.046328125 26.092999267578126 71.046328125 26.862999267578125 L 71.046328125 37.09299926757812 Q 71.046328125 37.84099926757813 71.211328125 38.192999267578124 Q 71.376328125 38.54499926757813 71.827328125 38.65499926757813 Q 72.278328125 38.764999267578126 73.136328125 38.786999267578125 L 73.136328125 39.292999267578125 Z M 86.63472052001953 39.46899926757813 Q 86.30472052001953 38.96299926757813 85.90872052001953 38.445999267578124 Q 85.51272052001953 37.92899926757813 84.83072052001953 37.18099926757812 L 76.80072052001952 28.094999267578125 L 76.75672052001953 28.094999267578125 L 76.75672052001953 37.09299926757812 Q 76.75672052001953 37.90699926757812 77.16372052001952 38.32499926757812 Q 77.57072052001953 38.74299926757813 78.86872052001954 38.786999267578125 L 78.86872052001954 39.292999267578125 L 74.22672052001953 39.292999267578125 L 74.22672052001953 38.786999267578125 Q 75.12872052001953 38.74299926757813 75.44772052001953 38.32499926757812 Q 75.76672052001953 37.90699926757812 75.76672052001953 37.09299926757812 L 75.76672052001953 26.862999267578125 Q 75.76672052001953 26.00499926757813 75.27172052001953 25.608999267578128 Q 74.77672052001954 25.212999267578127 73.67672052001953 25.168999267578126 L 73.67672052001953 24.662999267578126 L 76.66872052001953 24.662999267578126 Q 76.99872052001953 25.212999267578127 77.38372052001954 25.740999267578125 Q 77.76872052001953 26.268999267578124 78.23072052001953 26.774999267578124 L 86.34872052001953 35.86099926757812 L 86.39272052001954 35.86099926757812 L 86.39272052001954 26.862999267578125 Q 86.39272052001954 26.048999267578125 85.98572052001953 25.630999267578126 Q 85.57872052001953 25.212999267578127 84.28072052001953 25.168999267578126 L 84.28072052001953 24.662999267578126 L 88.92272052001954 24.662999267578126 L 88.92272052001954 25.168999267578126 Q 88.04272052001953 25.212999267578127 87.71272052001953 25.630999267578126 Q 87.38272052001953 26.048999267578125 87.38272052001953 26.862999267578125 L 87.38272052001953 37.09299926757812 Q 87.38272052001953 37.70899926757812 87.39372052001953 38.26999926757812 Q 87.40472052001954 38.83099926757812 87.42672052001953 39.46899926757813 Z M 89.79788623046875 39.292999267578125 L 89.79788623046875 38.786999267578125 Q 90.39188623046876 38.764999267578126 90.73288623046875 38.65499926757813 Q 91.07388623046874 38.54499926757813 91.20588623046875 38.192999267578124 Q 91.33788623046875 37.84099926757813 91.33788623046875 37.09299926757812 L 91.33788623046875 26.862999267578125 Q 91.33788623046875 26.092999267578126 91.17288623046875 25.751999267578128 Q 91.00788623046876 25.410999267578127 90.56788623046874 25.300999267578128 Q 90.12788623046875 25.19099926757813 89.24788623046875 25.168999267578126 L 89.24788623046875 24.662999267578126 L 94.74788623046875 24.662999267578126 L 94.74788623046875 25.168999267578126 Q 94.15388623046874 25.19099926757813 93.82388623046874 25.300999267578128 Q 93.49388623046875 25.410999267578127 93.35088623046875 25.751999267578128 Q 93.20788623046874 26.092999267578126 93.20788623046874 26.862999267578125 L 93.20788623046874 30.712999267578127 Q 93.38388623046875 30.580999267578125 93.63688623046875 30.536999267578125 Q 93.88988623046875 30.492999267578128 94.24188623046875 30.492999267578128 L 100.04988623046874 30.492999267578128 Q 100.64388623046875 30.492999267578128 100.88588623046874 30.294999267578127 Q 101.12788623046875 30.096999267578127 101.12788623046875 29.502999267578126 L 101.12788623046875 26.862999267578125 Q 101.12788623046875 26.092999267578126 100.96288623046875 25.751999267578128 Q 100.79788623046875 25.410999267578127 100.35788623046875 25.300999267578128 Q 99.91788623046875 25.19099926757813 99.03788623046876 25.168999267578126 L 99.03788623046876 24.662999267578126 L 104.53788623046876 24.662999267578126 L 104.53788623046876 25.168999267578126 Q 103.94388623046875 25.19099926757813 103.61388623046875 25.300999267578128 Q 103.28388623046875 25.410999267578127 103.14088623046875 25.751999267578128 Q 102.99788623046875 26.092999267578126 102.99788623046875 26.862999267578125 L 102.99788623046875 37.09299926757812 Q 102.99788623046875 37.84099926757813 103.15188623046875 38.192999267578124 Q 103.30588623046874 38.54499926757813 103.75688623046875 38.65499926757813 Q 104.20788623046874 38.764999267578126 105.06588623046875 38.786999267578125 L 105.06588623046875 39.292999267578125 L 99.58788623046875 39.292999267578125 L 99.58788623046875 38.786999267578125 Q 100.18188623046875 38.764999267578126 100.52288623046874 38.65499926757813 Q 100.86388623046875 38.54499926757813 100.99588623046876 38.192999267578124 Q 101.12788623046875 37.84099926757813 101.12788623046875 37.09299926757812 L 101.12788623046875 31.042999267578125 Q 100.95188623046874 31.196999267578125 100.68788623046875 31.240999267578125 Q 100.42388623046875 31.284999267578126 100.09388623046875 31.284999267578126 L 94.28588623046875 31.284999267578126 Q 93.69188623046875 31.284999267578126 93.44988623046875 31.482999267578126 Q 93.20788623046874 31.680999267578127 93.20788623046874 32.252999267578126 L 93.20788623046874 37.09299926757812 Q 93.20788623046874 37.84099926757813 93.37288623046875 38.192999267578124 Q 93.53788623046874 38.54499926757813 93.97788623046876 38.65499926757813 Q 94.41788623046875 38.764999267578126 95.27588623046876 38.786999267578125 L 95.27588623046876 39.292999267578125 Z M 113.15981811523437 24.332999267578124 Q 114.65581811523438 24.332999267578124 115.97581811523438 24.860999267578126 Q 117.29581811523437 25.388999267578125 118.32981811523437 26.389999267578126 Q 119.36381811523438 27.390999267578124 119.94681811523438 28.798999267578125 Q 120.52981811523438 30.206999267578126 120.52981811523438 31.944999267578126 Q 120.52981811523438 33.682999267578126 119.94681811523438 35.09099926757813 Q 119.36381811523438 36.49899926757813 118.34081811523437 37.51099926757813 Q 117.31781811523437 38.52299926757812 115.97581811523438 39.072999267578126 Q 114.63381811523438 39.62299926757812 113.13781811523438 39.62299926757812 Q 111.66381811523438 39.62299926757812 110.33281811523437 39.094999267578125 Q 109.00181811523437 38.566999267578126 107.97881811523438 37.56599926757813 Q 106.95581811523438 36.56499926757812 106.37281811523438 35.15699926757812 Q 105.78981811523437 33.74899926757813 105.78981811523437 32.01099926757813 Q 105.78981811523437 30.272999267578125 106.37281811523438 28.864999267578128 Q 106.95581811523438 27.456999267578126 107.97881811523438 26.444999267578126 Q 109.00181811523437 25.432999267578126 110.33281811523437 24.88299926757813 Q 111.66381811523438 24.332999267578124 113.15981811523437 24.332999267578124 Z M 113.46781811523438 38.74299926757813 Q 114.78781811523437 38.74299926757813 115.89881811523438 38.01699926757812 Q 117.00981811523437 37.29099926757812 117.69181811523437 35.871999267578126 Q 118.37381811523437 34.45299926757812 118.37381811523437 32.362999267578125 Q 118.37381811523437 30.074999267578125 117.58181811523437 28.479999267578126 Q 116.78981811523437 26.884999267578124 115.53581811523438 26.048999267578125 Q 114.28181811523437 25.212999267578127 112.85181811523438 25.212999267578127 Q 111.53181811523437 25.212999267578127 110.40981811523437 25.938999267578126 Q 109.28781811523437 26.664999267578125 108.60581811523437 28.083999267578125 Q 107.92381811523437 29.502999267578126 107.92381811523437 31.592999267578126 Q 107.92381811523437 33.880999267578126 108.71581811523437 35.475999267578125 Q 109.50781811523437 37.070999267578124 110.78381811523437 37.90699926757812 Q 112.05981811523438 38.74299926757813 113.46781811523438 38.74299926757813 Z M 134.24988623046875 39.46899926757813 Q 133.91988623046876 38.96299926757813 133.52388623046875 38.445999267578124 Q 133.12788623046876 37.92899926757813 132.44588623046874 37.18099926757812 L 124.41588623046874 28.094999267578125 L 124.37188623046875 28.094999267578125 L 124.37188623046875 37.09299926757812 Q 124.37188623046875 37.90699926757812 124.77888623046874 38.32499926757812 Q 125.18588623046875 38.74299926757813 126.48388623046876 38.786999267578125 L 126.48388623046876 39.292999267578125 L 121.84188623046875 39.292999267578125 L 121.84188623046875 38.786999267578125 Q 122.74388623046875 38.74299926757813 123.06288623046875 38.32499926757812 Q 123.38188623046875 37.90699926757812 123.38188623046875 37.09299926757812 L 123.38188623046875 26.862999267578125 Q 123.38188623046875 26.00499926757813 122.88688623046875 25.608999267578128 Q 122.39188623046876 25.212999267578127 121.29188623046875 25.168999267578126 L 121.29188623046875 24.662999267578126 L 124.28388623046875 24.662999267578126 Q 124.61388623046875 25.212999267578127 124.99888623046876 25.740999267578125 Q 125.38388623046875 26.268999267578124 125.84588623046875 26.774999267578124 L 133.96388623046874 35.86099926757812 L 134.00788623046876 35.86099926757812 L 134.00788623046876 26.862999267578125 Q 134.00788623046876 26.048999267578125 133.60088623046875 25.630999267578126 Q 133.19388623046876 25.212999267578127 131.89588623046876 25.168999267578126 L 131.89588623046876 24.662999267578126 L 136.53788623046876 24.662999267578126 L 136.53788623046876 25.168999267578126 Q 135.65788623046876 25.212999267578127 135.32788623046875 25.630999267578126 Q 134.99788623046874 26.048999267578125 134.99788623046874 26.862999267578125 L 134.99788623046874 37.09299926757812 Q 134.99788623046874 37.70899926757812 135.00888623046876 38.26999926757812 Q 135.01988623046876 38.83099926757812 135.04188623046875 39.46899926757813 Z M 137.6110595703125 39.292999267578125 L 137.6110595703125 38.786999267578125 Q 138.2050595703125 38.764999267578126 138.5460595703125 38.65499926757813 Q 138.8870595703125 38.54499926757813 139.0190595703125 38.192999267578124 Q 139.1510595703125 37.84099926757813 139.1510595703125 37.09299926757812 L 139.1510595703125 26.862999267578125 Q 139.1510595703125 26.092999267578126 138.9860595703125 25.751999267578128 Q 138.8210595703125 25.410999267578127 138.3810595703125 25.300999267578128 Q 137.9410595703125 25.19099926757813 137.0610595703125 25.168999267578126 L 137.0610595703125 24.662999267578126 L 142.5610595703125 24.662999267578126 L 142.5610595703125 25.168999267578126 Q 141.9670595703125 25.19099926757813 141.6370595703125 25.300999267578128 Q 141.3070595703125 25.410999267578127 141.1640595703125 25.751999267578128 Q 141.0210595703125 26.092999267578126 141.0210595703125 26.862999267578125 L 141.0210595703125 37.09299926757812 Q 141.0210595703125 37.84099926757813 141.1860595703125 38.192999267578124 Q 141.3510595703125 38.54499926757813 141.8020595703125 38.65499926757813 Q 142.2530595703125 38.764999267578126 143.1110595703125 38.786999267578125 L 143.1110595703125 39.292999267578125 Z" transform="matrix(1, 0, 0, 1, 0, 0)" style="fill: rgb(255, 255, 255); white-space: pre;"/>
  <text style="white-space: pre; fill: rgb(51, 51, 51); font-family: Arial, sans-serif; font-size: 28px;" transform="matrix(0.102176, 0, 0, 0.102176, 28.533379, 14.756516)"> </text>
  <text style="white-space: pre; fill: rgb(51, 51, 51); font-family: Arial, sans-serif; font-size: 28px;" transform="matrix(0.102176, 0, 0, 0.102176, 41.412912, 9.468232)"> </text>
</svg>