<?xml version="1.0" encoding="utf-8"?>
<svg width="152" height="64" viewBox="0 0 152 64" fill="none" xmlns="http://www.w3.org/2000/svg">
  <rect width="152" height="64" rx="4" fill="#D73B3B"/>
  <mask id="mask0_8_388" style="mask-type:alpha" maskUnits="userSpaceOnUse" x="0" y="0" width="152" height="64">
    <rect width="152" height="64" rx="4" fill="#D73B3B"/>
  </mask>
  <g mask="url(#mask0_8_388)">
    <rect x="40" y="69.2401" width="182.522" height="72.8274" transform="rotate(-15 40 69.2401)" fill="#C53333"/>
    <rect x="63.1822" y="63.0285" width="12" height="11.9844" transform="rotate(-15 63.1822 63.0285)" fill="white"/>
    <rect x="86.3644" y="56.8168" width="12" height="11.9844" transform="rotate(-15 86.3644 56.8168)" fill="white"/>
    <rect x="109.547" y="50.6052" width="12" height="11.9844" transform="rotate(-15 109.547 50.6052)" fill="white"/>
    <rect x="132.729" y="44.3935" width="12" height="11.9844" transform="rotate(-15 132.729 44.3935)" fill="white"/>
    <rect x="147.422" y="52.8637" width="12" height="11.9844" transform="rotate(-15 147.422 52.8637)" fill="white"/>
    <rect x="124.24" y="59.0753" width="12" height="11.9844" transform="rotate(-15 124.24 59.0753)" fill="white"/>
    <rect x="101.057" y="65.287" width="12" height="11.9844" transform="rotate(-15 101.057 65.287)" fill="white"/>
  </g>
  <path d="M 29.002000762939453 39.89599703979492 Q 24.701000762939454 39.89599703979492 22.631000762939454 37.45799703979492 Q 21.895000762939453 36.58399703979492 21.435000762939453 35.134997039794925 Q 20.97500076293945 33.68599703979492 20.97500076293945 31.61599703979492 Q 20.97500076293945 29.545997039794923 21.65350076293945 27.901497039794922 Q 22.332000762939455 26.25699703979492 23.505000762939453 25.359997039794923 Q 25.782000762939454 23.68099703979492 29.002000762939453 23.68099703979492 Q 29.922000762939454 23.68099703979492 30.796000762939453 23.83049703979492 Q 31.670000762939452 23.979997039794924 32.10700076293945 24.14099703979492 L 32.52100076293945 24.301997039794923 L 32.452000762939456 24.531997039794923 Q 30.888000762939456 23.91099703979492 29.002000762939453 23.91099703979492 Q 26.564000762939454 23.91099703979492 24.931000762939455 25.497997039794924 Q 23.689000762939454 26.670997039794923 23.183000762939454 28.94799703979492 Q 22.884000762939454 30.235997039794924 22.884000762939454 32.098997039794924 Q 22.884000762939454 33.96199703979492 23.413000762939454 35.53749703979492 Q 23.942000762939454 37.11299703979492 24.620500762939454 37.87199703979492 Q 25.299000762939453 38.63099703979492 26.26500076293945 39.07949703979492 Q 27.231000762939452 39.52799703979492 27.806000762939455 39.59699703979492 Q 28.38100076293945 39.665997039794924 29.197500762939455 39.665997039794924 Q 30.014000762939453 39.665997039794924 31.049000762939453 39.50499703979492 Q 32.08400076293945 39.34399703979492 32.61300076293945 39.20599703979492 L 33.14200076293945 39.04499703979492 L 33.21100076293945 39.27499703979492 Q 31.46300076293945 39.89599703979492 29.002000762939453 39.89599703979492 Z M 33.47098199462891 39.80399703979492 L 33.194981994628904 39.80399703979492 L 40.071981994628906 23.70399703979492 L 40.32498199462891 23.588997039794922 L 46.120981994628906 39.80399703979492 L 44.16598199462891 39.80399703979492 L 42.371981994628904 34.74399703979492 L 35.6559819946289 34.74399703979492 Z M 39.358981994628905 26.187997039794922 L 35.74798199462891 34.51399703979492 L 42.30298199462891 34.51399703979492 Z M 46.87460455322265 39.80399703979492 L 46.575604553222654 39.80399703979492 L 46.575604553222654 23.70399703979492 L 47.35760455322266 23.70399703979492 L 56.925604553222655 38.58499703979492 L 56.925604553222655 23.70399703979492 L 57.224604553222655 23.70399703979492 L 57.224604553222655 39.80399703979492 L 55.54560455322266 39.80399703979492 L 46.87460455322265 26.463997039794922 Z M 60.66268463134766 23.726997039794924 Q 61.67468463134766 23.68099703979492 62.65218463134766 23.68099703979492 Q 63.62968463134766 23.68099703979492 64.72218463134766 23.88799703979492 Q 65.81468463134766 24.094997039794922 66.88418463134765 24.658497039794923 Q 67.95368463134766 25.22199703979492 68.70118463134766 26.10749703979492 Q 69.44868463134766 26.992997039794922 69.90868463134765 28.44199703979492 Q 70.36868463134766 29.89099703979492 70.36868463134766 31.960997039794922 Q 70.36868463134766 34.030997039794926 69.69018463134765 35.67549703979492 Q 69.01168463134766 37.31999703979492 67.83868463134766 38.19399703979492 Q 65.56168463134766 39.89599703979492 62.341684631347654 39.89599703979492 Q 61.21468463134766 39.89599703979492 59.972684631347654 39.80399703979492 L 58.822684631347656 39.80399703979492 L 58.822684631347656 23.726997039794924 Z M 60.731684631347655 39.619997039794924 Q 61.21468463134766 39.665997039794924 61.950684631347656 39.665997039794924 Q 62.68668463134766 39.665997039794924 63.054684631347655 39.64299703979492 Q 63.42268463134766 39.619997039794924 64.06668463134766 39.447497039794925 Q 64.71068463134766 39.27499703979492 65.26268463134765 38.97599703979492 Q 65.81468463134766 38.67699703979492 66.42418463134766 38.09049703979492 Q 67.03368463134765 37.503997039794925 67.47068463134765 36.698997039794925 Q 68.45968463134766 34.81299703979492 68.45968463134766 31.77699703979492 Q 68.45968463134766 29.614997039794922 67.93068463134766 28.039497039794924 Q 67.40168463134765 26.463997039794922 66.72318463134766 25.70499703979492 Q 66.04468463134765 24.94599703979492 65.07868463134766 24.497497039794922 Q 64.11268463134766 24.048997039794923 63.53768463134766 23.979997039794924 Q 62.962684631347656 23.91099703979492 62.203684631347656 23.91099703979492 Q 61.444684631347656 23.91099703979492 60.731684631347655 23.979997039794924 Z M 71.1634896850586 23.933997039794924 L 71.1634896850586 23.70399703979492 L 75.25748968505859 23.70399703979492 L 75.25748968505859 23.933997039794924 L 74.13048968505859 23.933997039794924 L 74.13048968505859 39.573997039794925 L 75.25748968505859 39.573997039794925 L 75.25748968505859 39.80399703979492 L 71.1634896850586 39.80399703979492 L 71.1634896850586 39.573997039794925 L 72.2214896850586 39.573997039794925 L 72.2214896850586 23.933997039794924 Z M 77.16567358398437 39.80399703979492 L 76.86667358398438 39.80399703979492 L 76.86667358398438 23.70399703979492 L 77.64867358398438 23.70399703979492 L 87.21667358398437 38.58499703979492 L 87.21667358398437 23.70399703979492 L 87.51567358398438 23.70399703979492 L 87.51567358398438 39.80399703979492 L 85.83667358398438 39.80399703979492 L 77.16567358398437 26.463997039794922 Z M 90.56275366210937 39.80399703979492 L 88.65375366210938 39.80399703979492 L 88.65375366210938 23.70399703979492 L 90.56275366210937 23.70399703979492 L 90.56275366210937 31.109997039794923 L 98.03775366210938 31.109997039794923 L 98.03775366210938 23.70399703979492 L 99.94675366210937 23.70399703979492 L 99.94675366210937 39.80399703979492 L 98.03775366210938 39.80399703979492 L 98.03775366210938 31.339997039794923 L 90.56275366210937 31.339997039794923 Z M 100.51189270019532 32.14499703979492 Q 100.51189270019532 27.958997039794923 102.54739270019532 25.785497039794922 Q 104.58289270019532 23.61199703979492 107.77989270019532 23.61199703979492 Q 110.97689270019531 23.61199703979492 112.87439270019532 25.497997039794924 Q 114.77189270019531 27.38399703979492 114.77189270019531 31.52399703979492 Q 114.77189270019531 35.66399703979492 112.74789270019531 37.77999703979492 Q 110.72389270019531 39.89599703979492 107.3428927001953 39.89599703979492 Q 104.42189270019531 39.89599703979492 102.55889270019532 38.21699703979492 Q 101.5928927001953 37.34299703979492 101.05239270019531 35.79049703979492 Q 100.51189270019532 34.23799703979492 100.51189270019532 32.14499703979492 Z M 107.71089270019532 23.841997039794922 Q 107.71089270019532 23.841997039794922 106.54939270019531 23.841997039794922 Q 105.38789270019531 23.841997039794922 103.90439270019532 25.911997039794922 Q 102.42089270019531 27.981997039794923 102.42089270019531 31.98399703979492 Q 102.42089270019531 35.985997039794924 103.82389270019532 37.82599703979492 Q 105.22689270019531 39.665997039794924 107.56139270019531 39.665997039794924 Q 109.89589270019532 39.665997039794924 111.37939270019531 37.584497039794925 Q 112.86289270019532 35.50299703979492 112.86289270019532 31.535497039794922 Q 112.86289270019532 27.56799703979492 111.44839270019531 25.70499703979492 Q 110.03389270019531 23.841997039794922 107.71089270019532 23.841997039794922 Z M 115.97528967285156 39.80399703979492 L 115.67628967285157 39.80399703979492 L 115.67628967285157 23.70399703979492 L 116.45828967285156 23.70399703979492 L 126.02628967285156 38.58499703979492 L 126.02628967285156 23.70399703979492 L 126.32528967285157 23.70399703979492 L 126.32528967285157 39.80399703979492 L 124.64628967285157 39.80399703979492 L 115.97528967285156 26.463997039794922 Z M 127.9233773803711 23.933997039794924 L 127.9233773803711 23.70399703979492 L 132.0173773803711 23.70399703979492 L 132.0173773803711 23.933997039794924 L 130.8903773803711 23.933997039794924 L 130.8903773803711 39.573997039794925 L 132.0173773803711 39.573997039794925 L 132.0173773803711 39.80399703979492 L 127.9233773803711 39.80399703979492 L 127.9233773803711 39.573997039794925 L 128.9813773803711 39.573997039794925 L 128.9813773803711 23.933997039794924 Z" transform="matrix(1, 0, 0, 1, 0, 0)" style="fill: rgb(255, 255, 255); white-space: pre;"/>
  <text style="white-space: pre; fill: rgb(51, 51, 51); font-family: Arial, sans-serif; font-size: 28px;" transform="matrix(0.102176, 0, 0, 0.102176, 28.533379, 14.756516)"> </text>
  <text style="white-space: pre; fill: rgb(51, 51, 51); font-family: Arial, sans-serif; font-size: 28px;" transform="matrix(0.102176, 0, 0, 0.102176, 41.412912, 9.468232)"> </text>
</svg>